<svg xmlns="http://www.w3.org/2000/svg" xmlns:xlink="http://www.w3.org/1999/xlink" width="500" zoomAndPan="magnify" viewBox="0 0 375 374.999991" height="500" preserveAspectRatio="xMidYMid meet" version="1.0"><defs><g/><clipPath id="id1"><path d="M 0 1.171875 L 373.5 1.171875 L 373.5 374.671875 L 0 374.671875 Z M 0 1.171875 " clip-rule="nonzero"/></clipPath></defs><g clip-path="url(#id1)"><path fill="#404040" d="M 186.75 38.941406 C 269.027344 38.941406 335.730469 105.644531 335.730469 187.921875 C 335.730469 270.203125 269.027344 336.90625 186.75 336.90625 C 104.46875 336.90625 37.765625 270.203125 37.765625 187.921875 C 37.765625 105.644531 104.46875 38.941406 186.75 38.941406 Z M 186.75 345.328125 C 148.320312 345.328125 111.320312 331.332031 82.558594 305.921875 C 60.867188 286.75 44.898438 262.089844 36.378906 234.601562 L 26.238281 237.75 C 35.335938 267.089844 52.378906 293.414062 75.53125 313.875 C 106.234375 341 145.730469 355.941406 186.75 355.941406 Z M 338.902344 259.308594 C 349.433594 236.886719 354.773438 212.871094 354.773438 187.925781 L 344.15625 187.925781 C 344.15625 211.296875 339.15625 233.796875 329.292969 254.792969 C 310.074219 295.6875 274.238281 326.394531 230.972656 339.03125 L 233.953125 349.222656 C 280.136719 335.730469 318.386719 302.957031 338.902344 259.308594 Z M 316.648438 81.347656 C 288.046875 46.515625 247.6875 24.96875 203.011719 20.675781 C 197.640625 20.160156 192.167969 19.898438 186.75 19.898438 L 186.75 30.515625 C 191.832031 30.515625 196.960938 30.761719 202 31.242188 C 243.84375 35.265625 281.644531 55.449219 308.441406 88.085938 Z M 83.457031 69.148438 L 76.484375 61.140625 C 39.777344 93.085938 18.726562 139.296875 18.726562 187.925781 L 29.34375 187.925781 C 29.34375 142.371094 49.066406 99.078125 83.457031 69.148438 Z M 373.5 187.925781 C 373.5 169.359375 370.78125 151.023438 365.417969 133.429688 C 358.644531 111.1875 347.867188 90.609375 333.382812 72.269531 C 297.699219 27.085938 244.253906 1.171875 186.75 1.171875 L 186.75 11.789062 C 240.984375 11.789062 291.394531 36.230469 325.050781 78.847656 C 338.710938 96.144531 348.875 115.550781 355.261719 136.523438 C 360.320312 153.113281 362.882812 170.40625 362.882812 187.925781 C 362.882812 206.796875 359.914062 225.367188 354.0625 243.117188 L 364.148438 246.441406 C 370.351562 227.613281 373.5 207.925781 373.5 187.925781 Z M 65.050781 60.601562 C 85.523438 41.019531 110.648438 26.535156 137.703125 18.707031 L 134.753906 8.507812 C 106.058594 16.808594 79.417969 32.167969 57.710938 52.925781 C 36.5 73.203125 20.175781 98.488281 10.5 126.039062 L 20.515625 129.558594 C 29.640625 103.574219 45.039062 79.730469 65.050781 60.601562 Z M 224.894531 370.769531 C 255.980469 364.3125 285.140625 349.839844 309.21875 328.910156 L 302.253906 320.894531 C 279.542969 340.636719 252.046875 354.285156 222.742188 360.371094 C 210.964844 362.816406 198.855469 364.054688 186.75 364.054688 C 156.671875 364.054688 126.992188 356.347656 100.914062 341.761719 C 73.226562 326.277344 50.179688 303.585938 34.265625 276.136719 C 18.792969 249.453125 10.613281 218.949219 10.617188 187.921875 L 0 187.921875 C -0.00390625 220.816406 8.667969 253.160156 25.074219 281.460938 C 41.949219 310.558594 66.378906 334.613281 95.730469 351.027344 C 123.386719 366.492188 154.859375 374.671875 186.75 374.671875 C 199.578125 374.671875 212.410156 373.359375 224.894531 370.769531 Z M 224.894531 370.769531 " fill-opacity="1" fill-rule="nonzero"/></g><g fill="#ffffff" fill-opacity="1"><g transform="translate(72.623831, 177.174066)"><g><path d="M -2.035156 3.816406 C 2.066406 3.816406 5.882812 -0.128906 5.882812 -6.230469 L 5.882812 -18.21875 C 5.882812 -20.824219 6.167969 -21.554688 7.152344 -21.839844 L 7.152344 -22.253906 L 2.035156 -22.253906 L 2.035156 -21.839844 C 3.019531 -21.554688 3.304688 -20.824219 3.304688 -18.21875 L 3.304688 -2.351562 C 3.304688 0.859375 2.382812 1.652344 1.621094 2.128906 C 0.09375 1.8125 -0.667969 1.652344 -1.558594 1.652344 C -2.671875 1.652344 -3.304688 2.449219 -3.304688 3.117188 C -3.304688 3.71875 -2.859375 3.816406 -2.035156 3.816406 Z M -2.035156 3.816406 "/></g></g></g><g fill="#ffffff" fill-opacity="1"><g transform="translate(83.273961, 177.174066)"><g><path d="M -0.539062 0 L 3.050781 0 L 3.050781 -0.414062 C 1.972656 -0.636719 1.84375 -1.683594 2.671875 -3.75 L 4.546875 -8.394531 L 13.511719 -8.394531 L 15.449219 -3.71875 C 16.46875 -1.335938 16.722656 -0.699219 15.738281 -0.414062 L 15.738281 0 L 20.664062 0 L 20.664062 -0.414062 C 19.996094 -0.699219 19.234375 -1.335938 18.25 -3.71875 L 10.429688 -22.507812 L 8.042969 -21.429688 L 8.328125 -20.761719 C 8.582031 -20.25 8.617188 -19.839844 8.394531 -19.265625 L 2.128906 -3.75 C 1.144531 -1.335938 0.351562 -0.699219 -0.539062 -0.414062 Z M 4.738281 -8.871094 L 8.964844 -19.328125 L 13.320312 -8.871094 Z M 4.738281 -8.871094 "/></g></g></g><g fill="#ffffff" fill-opacity="1"><g transform="translate(105.527599, 177.174066)"><g><path d="M 1.589844 0 L 5.59375 0 L 5.59375 -0.414062 C 4.195312 -0.792969 3.433594 -1.683594 3.433594 -5.308594 L 3.433594 -19.425781 L 11.574219 -6.039062 L 12.175781 -6.039062 L 20.25 -19.679688 L 20.25 -4.039062 C 20.25 -1.429688 19.933594 -0.699219 18.980469 -0.414062 L 18.980469 0 L 24.128906 0 L 24.128906 -0.414062 C 23.144531 -0.699219 22.859375 -1.429688 22.859375 -4.039062 L 22.859375 -16.945312 C 22.859375 -20.570312 23.527344 -21.460938 24.796875 -21.839844 L 24.796875 -22.253906 L 21.207031 -22.253906 L 13.066406 -8.550781 L 4.769531 -22.253906 L 0.921875 -22.253906 L 0.921875 -21.839844 C 2.195312 -21.460938 2.859375 -20.570312 2.859375 -16.945312 L 2.859375 -4.039062 C 2.859375 -1.429688 2.574219 -0.699219 1.589844 -0.414062 Z M 1.589844 0 "/></g></g></g><g fill="#ffffff" fill-opacity="1"><g transform="translate(133.821419, 177.174066)"><g><path d="M 1.621094 0 L 6.773438 0 L 6.773438 -0.414062 C 5.785156 -0.699219 5.5 -1.429688 5.5 -4.039062 L 5.5 -18.21875 C 5.5 -20.824219 5.785156 -21.554688 6.773438 -21.839844 L 6.773438 -22.253906 L 1.621094 -22.253906 L 1.621094 -21.839844 C 2.574219 -21.554688 2.894531 -20.824219 2.894531 -18.21875 L 2.894531 -4.039062 C 2.894531 -1.429688 2.574219 -0.699219 1.621094 -0.414062 Z M 1.621094 0 "/></g></g></g><g fill="#ffffff" fill-opacity="1"><g transform="translate(144.090059, 177.174066)"><g><path d="M 1.621094 0 L 17.296875 0 L 17.550781 -4.226562 L 17.199219 -4.292969 C 16.054688 -1.335938 14.117188 -0.476562 11.0625 -0.476562 L 6.929688 -0.476562 C 6.007812 -0.476562 5.5 -0.984375 5.5 -1.90625 L 5.5 -11.667969 L 9.570312 -11.667969 C 13.195312 -11.667969 14.117188 -10.9375 14.496094 -9.507812 L 14.878906 -9.507812 L 14.878906 -14.304688 L 14.496094 -14.304688 C 14.117188 -12.875 13.195312 -12.144531 9.570312 -12.144531 L 5.5 -12.144531 L 5.5 -21.777344 L 10.171875 -21.777344 C 13.417969 -21.777344 15.292969 -20.824219 16.40625 -18.027344 L 16.753906 -18.121094 L 16.40625 -22.253906 L 1.621094 -22.253906 L 1.621094 -21.839844 C 2.574219 -21.554688 2.894531 -20.824219 2.894531 -18.21875 L 2.894531 -4.039062 C 2.894531 -1.429688 2.574219 -0.699219 1.621094 -0.414062 Z M 1.621094 0 "/></g></g></g><g fill="#ffffff" fill-opacity="1"><g transform="translate(164.690603, 177.174066)"><g/></g></g><g fill="#ffffff" fill-opacity="1"><g transform="translate(173.242568, 177.174066)"><g><path d="M 12.972656 0.316406 C 18.3125 0.316406 24.226562 -3.179688 24.226562 -11.03125 C 24.226562 -18.820312 18.34375 -22.507812 12.972656 -22.507812 C 6.230469 -22.507812 1.652344 -17.675781 1.652344 -11.160156 C 1.652344 -3.273438 7.566406 0.316406 12.972656 0.316406 Z M 4.195312 -13.003906 C 4.003906 -18.183594 6.835938 -21.777344 11.667969 -21.777344 C 17.359375 -21.777344 21.523438 -15.578125 21.746094 -8.933594 C 21.90625 -4.164062 19.394531 -0.476562 14.304688 -0.476562 C 8.617188 -0.476562 4.417969 -6.613281 4.195312 -13.003906 Z M 4.195312 -13.003906 "/></g></g></g><g fill="#ffffff" fill-opacity="1"><g transform="translate(200.964161, 177.174066)"><g><path d="M 1.335938 -20.601562 L 2.226562 -14.304688 L 2.480469 -14.304688 L 3.371094 -20.601562 C 3.527344 -21.714844 3.148438 -22.476562 2.351562 -22.476562 C 1.527344 -22.476562 1.175781 -21.714844 1.335938 -20.601562 Z M 1.335938 -20.601562 "/></g></g></g><g fill="#ffffff" fill-opacity="1"><g transform="translate(207.481538, 177.174066)"><g><path d="M 1.621094 0 L 8.105469 0 C 15.832031 0 18.503906 -3.75 18.441406 -7.3125 C 18.40625 -10.429688 16.117188 -13.003906 10.9375 -13.257812 C 14.5625 -13.925781 15.960938 -15.894531 15.960938 -18.058594 C 15.960938 -20.632812 13.957031 -22.253906 9.0625 -22.253906 L 1.621094 -22.253906 L 1.621094 -21.839844 C 2.574219 -21.554688 2.894531 -20.824219 2.894531 -18.21875 L 2.894531 -4.039062 C 2.894531 -1.429688 2.574219 -0.699219 1.621094 -0.414062 Z M 5.5 -3.242188 L 5.5 -12.84375 L 8.742188 -12.84375 C 13.511719 -12.84375 15.546875 -10.171875 15.546875 -6.515625 C 15.546875 -2.988281 13.574219 -0.476562 8.394531 -0.476562 L 7.152344 -0.476562 C 5.785156 -0.476562 5.5 -0.953125 5.5 -3.242188 Z M 5.5 -13.320312 L 5.5 -21.777344 L 7.917969 -21.777344 C 11.191406 -21.777344 13.066406 -20.125 13.066406 -17.484375 C 13.066406 -15.164062 11.605469 -13.320312 8.457031 -13.320312 Z M 5.5 -13.320312 "/></g></g></g><g fill="#ffffff" fill-opacity="1"><g transform="translate(228.813252, 177.174066)"><g><path d="M 17.804688 0.222656 C 18.441406 0.222656 19.265625 0.160156 19.742188 0 L 19.742188 -0.382812 C 19.585938 -0.351562 19.425781 -0.351562 19.234375 -0.351562 C 18.152344 -0.351562 17.519531 -1.398438 15.992188 -5.214844 C 14.464844 -9.125 13.863281 -11.0625 9.949219 -11.574219 C 14.085938 -12.050781 16.246094 -14.304688 16.246094 -17.296875 C 16.246094 -20.125 14.339844 -22.253906 7.882812 -22.253906 L 1.621094 -22.253906 L 1.621094 -21.839844 C 2.605469 -21.554688 2.894531 -20.824219 2.894531 -18.21875 L 2.894531 -4.039062 C 2.894531 -1.429688 2.605469 -0.699219 1.621094 -0.414062 L 1.621094 0 L 6.773438 0 L 6.773438 -0.414062 C 5.785156 -0.699219 5.5 -1.429688 5.5 -4.039062 L 5.5 -11.476562 L 7.535156 -11.476562 C 11.351562 -11.476562 11.605469 -9.25 13.449219 -4.863281 C 14.847656 -1.558594 15.355469 0.222656 17.804688 0.222656 Z M 5.5 -11.953125 L 5.5 -21.714844 C 6.007812 -21.746094 6.515625 -21.777344 6.996094 -21.777344 C 11.699219 -21.777344 13.542969 -19.394531 13.542969 -16.5625 C 13.542969 -13.863281 11.828125 -11.953125 8.171875 -11.953125 Z M 5.5 -11.953125 "/></g></g></g><g fill="#ffffff" fill-opacity="1"><g transform="translate(250.144975, 177.174066)"><g><path d="M 1.621094 0 L 6.773438 0 L 6.773438 -0.414062 C 5.785156 -0.699219 5.5 -1.429688 5.5 -4.039062 L 5.5 -18.21875 C 5.5 -20.824219 5.785156 -21.554688 6.773438 -21.839844 L 6.773438 -22.253906 L 1.621094 -22.253906 L 1.621094 -21.839844 C 2.574219 -21.554688 2.894531 -20.824219 2.894531 -18.21875 L 2.894531 -4.039062 C 2.894531 -1.429688 2.574219 -0.699219 1.621094 -0.414062 Z M 1.621094 0 "/></g></g></g><g fill="#ffffff" fill-opacity="1"><g transform="translate(260.413615, 177.174066)"><g><path d="M 1.621094 0 L 17.296875 0 L 17.550781 -4.226562 L 17.199219 -4.292969 C 16.054688 -1.335938 14.117188 -0.476562 11.0625 -0.476562 L 6.929688 -0.476562 C 6.007812 -0.476562 5.5 -0.984375 5.5 -1.90625 L 5.5 -11.667969 L 9.570312 -11.667969 C 13.195312 -11.667969 14.117188 -10.9375 14.496094 -9.507812 L 14.878906 -9.507812 L 14.878906 -14.304688 L 14.496094 -14.304688 C 14.117188 -12.875 13.195312 -12.144531 9.570312 -12.144531 L 5.5 -12.144531 L 5.5 -21.777344 L 10.171875 -21.777344 C 13.417969 -21.777344 15.292969 -20.824219 16.40625 -18.027344 L 16.753906 -18.121094 L 16.40625 -22.253906 L 1.621094 -22.253906 L 1.621094 -21.839844 C 2.574219 -21.554688 2.894531 -20.824219 2.894531 -18.21875 L 2.894531 -4.039062 C 2.894531 -1.429688 2.574219 -0.699219 1.621094 -0.414062 Z M 1.621094 0 "/></g></g></g><g fill="#ffffff" fill-opacity="1"><g transform="translate(281.014159, 177.174066)"><g><path d="M 18.40625 0.253906 L 18.820312 0.253906 L 18.820312 -18.21875 C 18.820312 -20.824219 19.105469 -21.554688 20.09375 -21.839844 L 20.09375 -22.253906 L 16.085938 -22.253906 L 16.085938 -21.839844 C 17.519531 -21.460938 18.28125 -20.570312 18.28125 -16.945312 L 18.28125 -4.261719 L 4.386719 -22.253906 L 1.273438 -22.253906 L 1.273438 -21.839844 C 2.542969 -21.554688 2.925781 -20.824219 2.925781 -18.21875 L 2.925781 -4.039062 C 2.925781 -1.429688 2.605469 -0.699219 1.652344 -0.414062 L 1.652344 0 L 5.628906 0 L 5.628906 -0.414062 C 4.195312 -0.792969 3.433594 -1.683594 3.433594 -5.308594 L 3.433594 -19.234375 Z M 18.40625 0.253906 "/></g></g></g><g fill="#ffffff" fill-opacity="1"><g transform="translate(113.188081, 214.137457)"><g><path d="M 11.1875 0 L 9.515625 0 L 7.234375 -7.53125 L 4.921875 0 L 3.234375 0 L 0.046875 -9.640625 L 1.796875 -9.640625 L 4.140625 -1.8125 L 6.46875 -9.640625 L 8.0625 -9.640625 L 10.40625 -1.8125 L 12.734375 -9.640625 L 14.421875 -9.640625 Z M 11.1875 0 "/></g></g></g><g fill="#ffffff" fill-opacity="1"><g transform="translate(129.611274, 214.137457)"><g><path d="M 8.15625 -8.1875 L 2.890625 -8.1875 L 2.890625 -5.578125 L 7.609375 -5.578125 L 7.609375 -4.125 L 2.890625 -4.125 L 2.890625 -1.453125 L 8.328125 -1.453125 L 8.328125 0 L 1.265625 0 L 1.265625 -9.640625 L 8.15625 -9.640625 Z M 8.15625 -8.1875 "/></g></g></g><g fill="#ffffff" fill-opacity="1"><g transform="translate(140.799384, 214.137457)"><g><path d="M 1.265625 -9.640625 L 5.453125 -9.640625 C 6.453125 -9.640625 7.242188 -9.425781 7.828125 -9 C 8.410156 -8.570312 8.703125 -7.984375 8.703125 -7.234375 C 8.703125 -6.691406 8.546875 -6.226562 8.234375 -5.84375 C 7.929688 -5.46875 7.519531 -5.210938 7 -5.078125 C 7.644531 -4.972656 8.148438 -4.703125 8.515625 -4.265625 C 8.878906 -3.835938 9.0625 -3.296875 9.0625 -2.640625 C 9.0625 -1.816406 8.75 -1.171875 8.125 -0.703125 C 7.5 -0.234375 6.640625 0 5.546875 0 L 1.265625 0 Z M 2.890625 -8.203125 L 2.890625 -5.65625 L 5.375 -5.65625 C 5.882812 -5.65625 6.285156 -5.769531 6.578125 -6 C 6.878906 -6.226562 7.03125 -6.539062 7.03125 -6.9375 C 7.03125 -7.34375 6.882812 -7.65625 6.59375 -7.875 C 6.300781 -8.09375 5.894531 -8.203125 5.375 -8.203125 Z M 2.890625 -4.21875 L 2.890625 -1.453125 L 5.375 -1.453125 C 6.019531 -1.453125 6.519531 -1.570312 6.875 -1.8125 C 7.226562 -2.050781 7.40625 -2.398438 7.40625 -2.859375 C 7.40625 -3.273438 7.222656 -3.601562 6.859375 -3.84375 C 6.503906 -4.09375 6.007812 -4.21875 5.375 -4.21875 Z M 2.890625 -4.21875 "/></g></g></g><g fill="#ffffff" fill-opacity="1"><g transform="translate(152.676324, 214.137457)"><g/></g></g><g fill="#ffffff" fill-opacity="1"><g transform="translate(158.381377, 214.137457)"><g><path d="M 1.265625 -9.640625 L 5.21875 -9.640625 C 6.664062 -9.640625 7.859375 -9.1875 8.796875 -8.28125 C 9.742188 -7.375 10.21875 -6.222656 10.21875 -4.828125 C 10.21875 -3.429688 9.742188 -2.273438 8.796875 -1.359375 C 7.847656 -0.453125 6.644531 0 5.1875 0 L 1.265625 0 Z M 2.890625 -8.1875 L 2.890625 -1.453125 L 5.265625 -1.453125 C 6.210938 -1.453125 7 -1.765625 7.625 -2.390625 C 8.257812 -3.023438 8.578125 -3.828125 8.578125 -4.796875 C 8.578125 -5.773438 8.25 -6.582031 7.59375 -7.21875 C 6.945312 -7.863281 6.148438 -8.1875 5.203125 -8.1875 Z M 2.890625 -8.1875 "/></g></g></g><g fill="#ffffff" fill-opacity="1"><g transform="translate(171.208903, 214.137457)"><g><path d="M 8.15625 -8.1875 L 2.890625 -8.1875 L 2.890625 -5.578125 L 7.609375 -5.578125 L 7.609375 -4.125 L 2.890625 -4.125 L 2.890625 -1.453125 L 8.328125 -1.453125 L 8.328125 0 L 1.265625 0 L 1.265625 -9.640625 L 8.15625 -9.640625 Z M 8.15625 -8.1875 "/></g></g></g><g fill="#ffffff" fill-opacity="1"><g transform="translate(182.397013, 214.137457)"><g><path d="M 5.5625 0 L 3.890625 0 L 0.046875 -9.640625 L 1.796875 -9.640625 L 4.765625 -1.8125 L 7.765625 -9.640625 L 9.46875 -9.640625 Z M 5.5625 0 "/></g></g></g><g fill="#ffffff" fill-opacity="1"><g transform="translate(194.053528, 214.137457)"><g><path d="M 8.15625 -8.1875 L 2.890625 -8.1875 L 2.890625 -5.578125 L 7.609375 -5.578125 L 7.609375 -4.125 L 2.890625 -4.125 L 2.890625 -1.453125 L 8.328125 -1.453125 L 8.328125 0 L 1.265625 0 L 1.265625 -9.640625 L 8.15625 -9.640625 Z M 8.15625 -8.1875 "/></g></g></g><g fill="#ffffff" fill-opacity="1"><g transform="translate(205.241642, 214.137457)"><g><path d="M 2.890625 -1.46875 L 7.0625 -1.46875 L 7.0625 0 L 1.265625 0 L 1.265625 -9.640625 L 2.890625 -9.640625 Z M 2.890625 -1.46875 "/></g></g></g><g fill="#ffffff" fill-opacity="1"><g transform="translate(214.749017, 214.137457)"><g><path d="M 1.9375 -8.28125 C 2.925781 -9.21875 4.140625 -9.6875 5.578125 -9.6875 C 7.023438 -9.6875 8.238281 -9.21875 9.21875 -8.28125 C 10.195312 -7.351562 10.6875 -6.195312 10.6875 -4.8125 C 10.6875 -3.4375 10.195312 -2.28125 9.21875 -1.34375 C 8.238281 -0.40625 7.023438 0.0625 5.578125 0.0625 C 4.140625 0.0625 2.925781 -0.40625 1.9375 -1.34375 C 0.957031 -2.28125 0.46875 -3.4375 0.46875 -4.8125 C 0.46875 -6.195312 0.957031 -7.351562 1.9375 -8.28125 Z M 5.59375 -8.234375 C 4.632812 -8.234375 3.816406 -7.898438 3.140625 -7.234375 C 2.460938 -6.578125 2.125 -5.769531 2.125 -4.8125 C 2.125 -3.863281 2.460938 -3.054688 3.140625 -2.390625 C 3.828125 -1.722656 4.644531 -1.390625 5.59375 -1.390625 C 6.539062 -1.390625 7.347656 -1.722656 8.015625 -2.390625 C 8.691406 -3.054688 9.03125 -3.863281 9.03125 -4.8125 C 9.03125 -5.769531 8.691406 -6.578125 8.015625 -7.234375 C 7.347656 -7.898438 6.539062 -8.234375 5.59375 -8.234375 Z M 5.59375 -8.234375 "/></g></g></g><g fill="#ffffff" fill-opacity="1"><g transform="translate(228.058725, 214.137457)"><g><path d="M 1.265625 -9.640625 L 5.109375 -9.640625 C 6.328125 -9.640625 7.269531 -9.351562 7.9375 -8.78125 C 8.601562 -8.207031 8.9375 -7.398438 8.9375 -6.359375 C 8.9375 -5.265625 8.601562 -4.414062 7.9375 -3.8125 C 7.269531 -3.207031 6.328125 -2.90625 5.109375 -2.90625 L 2.890625 -2.90625 L 2.890625 0 L 1.265625 0 Z M 2.890625 -8.1875 L 2.890625 -4.375 L 5.046875 -4.375 C 6.597656 -4.375 7.375 -5.019531 7.375 -6.3125 C 7.375 -7.5625 6.597656 -8.1875 5.046875 -8.1875 Z M 2.890625 -8.1875 "/></g></g></g><g fill="#ffffff" fill-opacity="1"><g transform="translate(239.481043, 214.137457)"><g><path d="M 8.15625 -8.1875 L 2.890625 -8.1875 L 2.890625 -5.578125 L 7.609375 -5.578125 L 7.609375 -4.125 L 2.890625 -4.125 L 2.890625 -1.453125 L 8.328125 -1.453125 L 8.328125 0 L 1.265625 0 L 1.265625 -9.640625 L 8.15625 -9.640625 Z M 8.15625 -8.1875 "/></g></g></g><g fill="#ffffff" fill-opacity="1"><g transform="translate(250.669156, 214.137457)"><g><path d="M 7.390625 0 L 5.625 -2.921875 C 5.53125 -2.910156 5.382812 -2.90625 5.1875 -2.90625 L 2.890625 -2.90625 L 2.890625 0 L 1.265625 0 L 1.265625 -9.640625 L 5.1875 -9.640625 C 6.414062 -9.640625 7.367188 -9.351562 8.046875 -8.78125 C 8.722656 -8.207031 9.0625 -7.398438 9.0625 -6.359375 C 9.0625 -5.585938 8.890625 -4.929688 8.546875 -4.390625 C 8.203125 -3.859375 7.707031 -3.46875 7.0625 -3.21875 L 9.234375 0 Z M 2.890625 -4.375 L 5.1875 -4.375 C 6.75 -4.375 7.53125 -5.019531 7.53125 -6.3125 C 7.53125 -7.5625 6.75 -8.1875 5.1875 -8.1875 L 2.890625 -8.1875 Z M 2.890625 -4.375 "/></g></g></g></svg>